:SAMPLES-PER-SECOND 30
:FRAME-RANGE 1-1390
:FULLY-SPECIFIED
:DEGREES
261
root  -33.2353 38.7062 -3.6163 172.355 -70.3195 -179.201
RightUpLeg  -3.33952 1.77805 5.3792
RightLeg  29.8525 -8.89981 -5.72381
RightFoot  -14.5594 -0.126613 -1.00166
RightToes  -2.9104e-010 0 -3.6325e-017
Spine  17.1181 -2.1404 -7.5593
Spine1  -0.712168 -8.94911 14.6879
HEad  -15.7721 -52.5733 23.6277
LeftShoulder1  3.37731 -6.2409 -28.6152
LeftArm  80.6762 -35.5979 -87.2954
LeftForeArm  -5.9832 -16.2914 -13.046
LeftHand  -0.0226724 5.07468 -0.231838
RightShoulder  12.3701 20.4991 44.9368
RightArm  33.8771 11.1771 24.2833
RightForeArm  32.3843 29.504 4.62731
RightHand  0.86514 4.70744 9.61585
LeftUpLeg  -96.3858 23.6643 -75.4807
LeftLeg  122.037 -2.87371 3.74327
LeftFoot  8.00024 1.74404 -10.4993
LeftToes  5.45371e-012 -1.3743e-010 1.09575e-010
262
root  -33.9992 39.7305 -2.82438 177.056 -65.0919 176.566
RightUpLeg  -3.17657 4.00216 2.18171
RightLeg  27.3065 -7.76861 -4.56746
RightFoot  -7.95361 -0.108766 1.85185
RightToes  -2.9104e-010 0 -3.6325e-017
Spine  17.4788 -1.89035 -6.53524
Spine1  -1.59013 -8.19091 12.9506
HEad  -16.008 -50.5722 22.8822
LeftShoulder1  3.36578 -6.27542 -28.369
LeftArm  80.5421 -35.4602 -87.657
LeftForeArm  -5.39108 -16.197 -13.1018
LeftHand  -0.0233022 5.11447 -0.360871
RightShoulder  12.4514 20.8555 44.5449
RightArm  35.345 10.7536 24.2053
RightForeArm  30.3357 29.5546 4.74914
RightHand  0.850596 4.50981 9.65178
LeftUpLeg  -96.7985 22.9993 -75.6351
LeftLeg  121.787 -4.04331 5.51559
LeftFoot  8.18132 1.82737 -10.8879
LeftToes  5.45371e-012 -1.3743e-010 1.09575e-010
263
root  -34.6328 40.4202 -2.05564 178.935 -59.9257 175.611
RightUpLeg  -6.31808 3.60193 1.35464
RightLeg  29.6392 -12.358 -7.73599
RightFoot  -1.19803 -0.00783265 -0.00365101
RightToes  -2.9104e-010 0 -3.6325e-017
Spine  17.8731 -1.69708 -6.11512
Spine1  -1.44711 -7.8522 12.4265
HEad  -16.1125 -48.2439 22.4109
LeftShoulder1  3.32318 -6.26571 -27.9562
LeftArm  83.5889 -35.2801 -87.723
LeftForeArm  -8.41241 -16.9901 -12.5026
LeftHand  -0.0214965 5.01353 -0.363982
RightShoulder  12.9733 22.1384 44.0375
RightArm  35.2495 10.1167 24.7395
RightForeArm  29.41 28.683 4.60161
RightHand  0.852795 4.6989 9.48372
LeftUpLeg  -97.1676 22.5104 -75.0419
LeftLeg  121.557 -5.0777 7.10212
LeftFoot  7.41416 1.70787 -10.5928
LeftToes  5.45371e-012 -1.3743e-010 1.09575e-010
264
root  -35.1594 40.7267 -1.40108 -179.723 -55.2683 175.74
RightUpLeg  -11.3118 1.48947 2.89484
RightLeg  34.2331 -16.0459 -11.6739
RightFoot  0.627682 0.50933 -4.81135
RightToes  -2.9104e-010 0 -3.6325e-017
Spine  18.2698 -1.53766 -7.01883
Spine1  -1.33841 -7.89506 12.6152
HEad  -15.5093 -46.0893 22.9925
LeftShoulder1  3.26893 -6.22744 -27.5197
LeftArm  84.5586 -35.1589 -87.5559
LeftForeArm  -10.0114 -17.2507 -12.3325
LeftHand  -0.0200889 4.9151 -0.593156
RightShoulder  13.1087 21.8052 45.1456
RightArm  36.6928 10.8757 24.0833
RightForeArm  28.1869 28.0341 4.52216
RightHand  0.815234 4.7533 9.00304
LeftUpLeg  -97.0605 22.2943 -74.7474
LeftLeg  121.4 -5.17314 7.28696
LeftFoot  6.53236 1.34999 -8.82593
LeftToes  5.45371e-012 -1.3743e-010 1.09575e-010
265
root  -35.6466 40.6222 -0.704106 -178.464 -51.6354 175.989
RightUpLeg  -14.9177 -1.89204 6.01052
RightLeg  32.3505 -9.286 -6.53149
RightFoot  -1.30932 0.269122 -3.16466
RightToes  -2.9104e-010 0 -3.6325e-017
Spine  18.8302 -1.89349 -8.50223
Spine1  -0.920714 -8.35311 12.6367
HEad  -14.8516 -43.9378 24.0445
LeftShoulder1  3.27624 -6.12811 -27.9542
LeftArm  82.0933 -35.2899 -87.3647
LeftForeArm  -7.27927 -16.6026 -12.8205
LeftHand  -0.0148707 4.57019 -0.34586
RightShoulder  13.0388 21.23 45.9959
RightArm  36.226 10.7975 24.1407
RightForeArm  28.2395 26.8578 4.26016
RightHand  0.732541 4.86453 7.96889
LeftUpLeg  -95.3923 22.1659 -74.916
LeftLeg  120.699 -4.91782 7.09625
LeftFoot  7.06848 1.46387 -9.28497
LeftToes  5.45371e-012 -1.3743e-010 1.09575e-010
266
root  -36.142 39.9673 -0.33121 -178.524 -48.4316 177.41
RightUpLeg  -15.752 -9.53957 11.9646
RightLeg  26.3256 -8.092 -4.5602
RightFoot  -4.32781 -0.351034 5.24255
RightToes  -2.9104e-010 0 -3.6325e-017
Spine  18.7909 -2.00428 -10.2038
Spine1  -0.264484 -8.87415 12.7821
HEad  -14.3403 -41.8817 25.4449
LeftShoulder1  3.36032 -6.14626 -28.7827
LeftArm  74.907 -35.9071 -87.6916
LeftForeArm  0.903628 -14.5643 -14.1975
LeftHand  -0.0207768 4.93621 -0.643903
RightShoulder  12.6403 20.2155 46.5344
RightArm  37.2744 10.7919 23.8848
RightForeArm  27.0798 26.4154 4.22552
RightHand  0.765869 5.08374 8.1552
LeftUpLeg  -93.2191 22.7296 -75.0746
LeftLeg  121.718 -4.57702 6.31838
LeftFoot  7.50702 1.45261 -9.01455
LeftToes  5.45371e-012 -1.3743e-010 1.09575e-010
267
root  -36.697 39.0076 0.151311 -177.149 -45.2192 177.111
RightUpLeg  -15.7106 -22.4212 17.4172
RightLeg  19.726 -9.34354 -3.87218
RightFoot  -3.311 -0.696223 9.57494
RightToes  -2.9104e-010 0 -3.6325e-017
Spine  18.7686 -2.28849 -11.8885
Spine1  -0.639654 -9.04206 11.8276
HEad  -13.0764 -40.5498 26.1063
LeftShoulder1  3.41458 -6.15735 -29.3158
LeftArm  68.9662 -35.5845 -87.7436
LeftForeArm  8.29171 -12.9105 -15.0846
LeftHand  -0.0207542 4.87731 -0.919489
RightShoulder  12.0895 19.0317 46.8748
RightArm  37.7313 9.23971 23.7768
RightForeArm  26.059 26.4415 4.28548
RightHand  0.721274 4.80609 7.89091
LeftUpLeg  -90.6968 22.9023 -76.0206
LeftLeg  122.252 -4.63217 6.26918
LeftFoot  8.96934 1.70899 -9.82944
LeftToes  5.45371e-012 -1.3743e-010 1.09575e-010
268
root  -37.2944 37.7269 0.549412 -175.868 -41.1511 175.611
RightUpLeg  -15.0263 -22.5279 18.9922
RightLeg  19.1024 -8.38755 -2.49636
RightFoot  -10.8195 0.00247421 -16.3467
RightToes  -2.9104e-010 0 -3.6325e-017
Spine  18.0647 -2.14783 -13.2536
Spine1  -0.168215 -8.78168 9.47308
HEad  -12.6726 -39.799 25.4234
LeftShoulder1  3.49292 -6.25737 -29.7649
LeftArm  69.3494 -34.371 -87.5251
LeftForeArm  8.49171 -13.2311 -14.8494
LeftHand  -0.0170265 4.54002 -1.20833
RightShoulder  11.3677 17.8165 46.5996
RightArm  37.793 7.11619 23.8077
RightForeArm  25.0273 27.1808 4.50283
RightHand  0.735239 4.5906 8.2369
LeftUpLeg  -88.2671 23.4258 -76.6228
LeftLeg  123.271 -4.29271 5.55617
LeftFoot  10.3586 2.11155 -11.3199
LeftToes  5.45371e-012 -1.3743e-010 1.09575e-010
269
root  -37.9892 36.1751 1.05077 -177.907 -35.1708 177.097
RightUpLeg  -16.6827 -10.6731 20.0119
RightLeg  29.2314 -16.0001 -9.7039
RightFoot  -21.6311 -1.72154 -17.3514
RightToes  -2.9104e-010 0 -3.6325e-017
Spine  19.1855 -1.5188 -10.9291
Spine1  -0.242821 -7.60263 6.59142
HEad  -14.0565 -37.9246 23.7451
LeftShoulder1  3.50199 -6.02357 -30.7511
LeftArm  68.461 -33.6234 -86.656
LeftForeArm  11.376 -13.0851 -14.8234
LeftHand  -0.0183874 4.38687 -0.713634
RightShoulder  11.2721 17.4022 47.1438
RightArm  38.7231 5.71731 23.1573
RightForeArm  23.5675 27.5582 4.66569
RightHand  0.741567 4.28113 8.59707
LeftUpLeg  -87.7831 24.1599 -74.2522
LeftLeg  125.07 -3.12513 3.65615
LeftFoot  13.1093 2.6399 -12.5173
LeftToes  5.45371e-012 -1.3743e-010 1.09575e-010
270
root  -38.7935 35.0074 1.73967 178.675 -26.9443 -178.749
RightUpLeg  -19.0135 -0.904399 23.3594
RightLeg  40.7643 -17.0685 -15.4239
RightFoot  -24.1862 -2.119 -17.2288
RightToes  -2.9104e-010 0 -3.6325e-017
Spine  19.8586 -1.2867 -7.05958
Spine1  1.64938 -6.43264 5.70097
HEad  -16.7084 -32.081 22.7994
LeftShoulder1  3.43516 -5.569 -31.8621
LeftArm  73.986 -33.9752 -84.5429
LeftForeArm  6.35046 -14.7065 -13.8122
LeftHand  -0.0290406 3.94647 0.652984
RightShoulder  13.1792 19.7536 49.5423
RightArm  39.0465 6.91343 21.9882
RightForeArm  20.9863 25.7504 4.40644
RightHand  0.642485 3.67461 7.95594
LeftUpLeg  -89.9614 25.6934 -70.2234
LeftLeg  126.192 -4.48716 5.22033
LeftFoot  14.4742 1.38356 -6.42219
LeftToes  5.45371e-012 -1.3743e-010 1.09575e-010
271
root  -39.425 34.6358 2.09869 177.367 -21.4197 -177.478
RightUpLeg  -18.6216 -0.408464 23.9012
RightLeg  43.7665 -13.6585 -13.9047
RightFoot  -25.6878 -2.42196 -17.708
RightToes  -2.9104e-010 0 -3.6325e-017
Spine  20.391 -1.37949 -9.12763
Spine1  2.54993 -7.55173 8.69464
HEad  -14.3604 -26.5446 20.2687
LeftShoulder1  3.386 -5.63072 -31.0635
LeftArm  81.9491 -33.7292 -83.5403
LeftForeArm  -4.09901 -16.9817 -12.2635
LeftHand  -0.0328327 3.92828 0.975951
RightShoulder  13.3045 19.4167 50.7499
RightArm  34.7536 8.79375 22.3071
RightForeArm  22.4058 24.8301 4.13258
RightHand  0.778283 4.43681 8.88101
LeftUpLeg  -91.074 27.4628 -70.6674
LeftLeg  123.682 -12.2257 15.9974
LeftFoot  12.2847 -1.0218 4.52258
LeftToes  5.45371e-012 -1.3743e-010 1.09575e-010
272
root  -39.926 34.7837 2.17466 176.932 -17.0357 -175.892
RightUpLeg  -17.0827 0.945548 24.5931
RightLeg  42.7564 -11.4452 -11.4063
RightFoot  -25.0856 -2.22992 -16.958
RightToes  -2.9104e-010 0 -3.6325e-017
Spine  20.409 -1.71197 -9.48188
Spine1  0.80546 -8.2339 10.5424
HEad  -10.5218 -23.3264 18.3159
LeftShoulder1  3.36594 -5.5025 -31.3702
LeftArm  71.6207 -35.5218 -84.2153
LeftForeArm  4.96052 -14.0491 -14.4055
LeftHand  -0.021369 4.26659 -0.212918
RightShoulder  12.3758 17.9698 50.4116
RightArm  33.4741 8.76975 22.8638
RightForeArm  24.7206 27.1423 4.51085
RightHand  0.855553 5.56546 8.71098
LeftUpLeg  -91.7589 26.8677 -71.3817
LeftLeg  124.425 -8.33396 10.657
LeftFoot  7.12642 -0.329012 1.75688
LeftToes  5.45371e-012 -1.3743e-010 1.09575e-010
273
root  -40.1948 35.5604 2.07021 177.392 -12.1373 -176.091
RightUpLeg  -13.463 2.43734 23.5559
RightLeg  37.3641 -9.19414 -7.72603
RightFoot  -22.3961 -1.83033 -17.2077
RightToes  -2.9104e-010 0 -3.6325e-017
Spine  19.5399 -1.37736 -10.8857
Spine1  -0.352296 -8.15765 11.0086
HEad  -7.73299 -20.8867 17.4768
LeftShoulder1  3.42036 -5.66983 -31.2819
LeftArm  65.2062 -35.2682 -84.0325
LeftForeArm  11.8618 -12.2663 -15.3565
LeftHand  -0.0260823 4.76036 0.0337504
RightShoulder  12.6971 18.5553 50.3397
RightArm  34.7993 7.69635 22.7774
RightForeArm  30.1923 26.7902 4.14235
RightHand  0.677832 4.86599 7.35225
LeftUpLeg  -92.9071 26.8557 -73.0751
LeftLeg  125.403 -2.24786 2.46518
LeftFoot  6.148 0.91831 -6.21021
LeftToes  5.45371e-012 -1.3743e-010 1.09575e-010
274
root  -40.4907 36.7695 2.01925 178.587 -8.34007 -178.042
RightUpLeg  -9.74112 2.02713 19.8935
RightLeg  29.5968 -4.87051 -3.22726
RightFoot  -17.7771 -1.06049 -16.6024
RightToes  -2.9104e-010 0 -3.6325e-017
Spine  18.1509 -1.55652 -12.2966
Spine1  -1.08134 -7.94319 9.76967
HEad  -5.63439 -19.2966 16.1529
LeftShoulder1  3.42055 -5.65259 -31.3547
LeftArm  67.9413 -33.5297 -83.5448
LeftForeArm  10.2687 -13.2334 -14.7671
LeftHand  -0.0206529 4.57019 0.338149
RightShoulder  12.2906 18.2435 49.4331
RightArm  36.3507 6.8567 23.7764
RightForeArm  26.7608 26.6153 4.28591
RightHand  0.787749 5.05553 8.42043
LeftUpLeg  -92.3355 26.1793 -75.9099
LeftLeg  125.189 -1.43178 1.41122
LeftFoot  8.50211 1.85715 -10.8896
LeftToes  5.45371e-012 -1.3743e-010 1.09575e-010
